<mxfile host="app.diagrams.net" agent="Mozilla/5.0 (Windows NT 10.0; Win64; x64) AppleWebKit/537.36 (KHTML, like Gecko) Chrome/137.0.0.0 Safari/537.36" version="27.1.6">
  <diagram name="Page-1" id="8ce9d11a-91a2-4d17-14d8-a56ed91bf033">
    <mxGraphModel dx="426" dy="517" grid="1" gridSize="10" guides="1" tooltips="1" connect="1" arrows="1" fold="1" page="1" pageScale="1" pageWidth="1100" pageHeight="850" background="none" math="0" shadow="0">
      <root>
        <mxCell id="0" />
        <mxCell id="1" parent="0" />
        <mxCell id="WtCsUTE8d4EsuesHsdqu-1" value="¿Qué hacer en un evento?" style="strokeWidth=2;html=1;shape=mxgraph.flowchart.start_1;whiteSpace=wrap;" vertex="1" parent="1">
          <mxGeometry x="100" y="50" width="130" height="60" as="geometry" />
        </mxCell>
        <mxCell id="WtCsUTE8d4EsuesHsdqu-2" value="" style="endArrow=classic;html=1;rounded=0;exitX=0.5;exitY=1;exitDx=0;exitDy=0;exitPerimeter=0;entryX=0.5;entryY=0;entryDx=0;entryDy=0;" edge="1" parent="1" source="WtCsUTE8d4EsuesHsdqu-1" target="WtCsUTE8d4EsuesHsdqu-3">
          <mxGeometry width="50" height="50" relative="1" as="geometry">
            <mxPoint x="180" y="260" as="sourcePoint" />
            <mxPoint x="170" y="200" as="targetPoint" />
          </mxGeometry>
        </mxCell>
        <mxCell id="WtCsUTE8d4EsuesHsdqu-3" value="Se observan las métricas CORE y las ALERTAS DEL SLACK" style="rounded=0;whiteSpace=wrap;html=1;" vertex="1" parent="1">
          <mxGeometry x="105" y="200" width="120" height="70" as="geometry" />
        </mxCell>
        <mxCell id="WtCsUTE8d4EsuesHsdqu-4" value="" style="rhombus;whiteSpace=wrap;html=1;" vertex="1" parent="1">
          <mxGeometry x="510" y="140" width="80" height="80" as="geometry" />
        </mxCell>
        <mxCell id="WtCsUTE8d4EsuesHsdqu-5" value="¿Se observo caida de métrica?&lt;div&gt;&amp;nbsp;o&amp;nbsp;&lt;/div&gt;&lt;div&gt;¿Se recibio alerta de caida de métrica?&lt;/div&gt;" style="strokeWidth=2;html=1;shape=mxgraph.flowchart.decision;whiteSpace=wrap;" vertex="1" parent="1">
          <mxGeometry x="34.38" y="340" width="261.25" height="190" as="geometry" />
        </mxCell>
        <mxCell id="WtCsUTE8d4EsuesHsdqu-7" value="" style="endArrow=classic;html=1;rounded=0;exitX=0.5;exitY=1;exitDx=0;exitDy=0;entryX=0.5;entryY=0;entryDx=0;entryDy=0;entryPerimeter=0;" edge="1" parent="1" source="WtCsUTE8d4EsuesHsdqu-3" target="WtCsUTE8d4EsuesHsdqu-5">
          <mxGeometry width="50" height="50" relative="1" as="geometry">
            <mxPoint x="150" y="320" as="sourcePoint" />
            <mxPoint x="150" y="410" as="targetPoint" />
          </mxGeometry>
        </mxCell>
        <mxCell id="WtCsUTE8d4EsuesHsdqu-8" value="" style="edgeStyle=elbowEdgeStyle;elbow=vertical;endArrow=classic;html=1;curved=0;rounded=0;endSize=8;startSize=8;entryX=0;entryY=0.5;entryDx=0;entryDy=0;exitX=0;exitY=0.5;exitDx=0;exitDy=0;exitPerimeter=0;" edge="1" parent="1" source="WtCsUTE8d4EsuesHsdqu-5" target="WtCsUTE8d4EsuesHsdqu-3">
          <mxGeometry width="50" height="50" relative="1" as="geometry">
            <mxPoint x="30" y="420" as="sourcePoint" />
            <mxPoint x="97.5" y="240" as="targetPoint" />
            <Array as="points">
              <mxPoint x="10" y="340" />
            </Array>
          </mxGeometry>
        </mxCell>
        <mxCell id="WtCsUTE8d4EsuesHsdqu-9" value="NO" style="text;html=1;align=center;verticalAlign=middle;resizable=0;points=[];autosize=1;strokeColor=none;fillColor=none;" vertex="1" parent="1">
          <mxGeometry x="40" y="360" width="40" height="30" as="geometry" />
        </mxCell>
        <mxCell id="WtCsUTE8d4EsuesHsdqu-10" value="SI" style="text;html=1;align=center;verticalAlign=middle;resizable=0;points=[];autosize=1;strokeColor=none;fillColor=none;" vertex="1" parent="1">
          <mxGeometry x="295" y="380" width="30" height="30" as="geometry" />
        </mxCell>
      </root>
    </mxGraphModel>
  </diagram>
</mxfile>
